<svg width="32" height="32" viewBox="0 0 32 32" fill="none" xmlns="http://www.w3.org/2000/svg">
  <rect width="32" height="32" rx="6" fill="#1a365d"/>
  <g transform="translate(4, 4)">
    <!-- Cifrão principal -->
    <path d="M12 2C12.5523 2 13 2.44772 13 3V4.08296C15.8377 4.54344 18 7.02154 18 10C18 10.5523 17.5523 11 17 11C16.4477 11 16 10.5523 16 10C16 8.34315 14.6569 7 13 7H11C9.34315 7 8 8.34315 8 10C8 11.6569 9.34315 13 11 13H13C16.3137 13 19 15.6863 19 19C19 21.9785 16.8377 24.4566 14 24.917V26C14 26.5523 13.5523 27 13 27C12.4477 27 12 26.5523 12 26V24.917C9.16228 24.4566 7 21.9785 7 19C7 18.4477 7.44772 18 8 18C8.55228 18 9 18.4477 9 19C9 20.6569 10.3431 22 12 22H14C15.6569 22 17 20.6569 17 19C17 17.3431 15.6569 16 14 16H12C8.68629 16 6 13.3137 6 10C6 7.02154 8.16228 4.54344 11 4.08296V3C11 2.44772 11.4477 2 12 2Z" fill="#10b981"/>
    
    <!-- Moedas decorativas -->
    <circle cx="4" cy="6" r="2" fill="#34d399" opacity="0.7"/>
    <circle cx="20" cy="8" r="1.5" fill="#34d399" opacity="0.5"/>
    <circle cx="3" cy="20" r="1.5" fill="#34d399" opacity="0.6"/>
    <circle cx="21" cy="22" r="2" fill="#34d399" opacity="0.4"/>
  </g>
</svg>
